<?xml version="1.0" encoding="UTF-8"?>
<svg width="700pt" height="700pt" version="1.1" viewBox="0 0 700 700" xmlns="http://www.w3.org/2000/svg" xmlns:xlink="http://www.w3.org/1999/xlink">
 <defs>
  <symbol id="t" overflow="visible">
   <path d="m2.2969-0.14062c-0.11719 0.0625-0.24219 0.10938-0.375 0.14062-0.125 0.03125-0.25781 0.046875-0.39062 0.046875-0.41797 0-0.75-0.11328-1-0.34375-0.24219-0.23828-0.35938-0.55469-0.35938-0.95312 0-0.39453 0.11719-0.70703 0.35938-0.9375 0.25-0.23828 0.58203-0.35938 1-0.35938 0.13281 0 0.26562 0.015625 0.39062 0.046875 0.13281 0.03125 0.25781 0.078125 0.375 0.14062v0.51562c-0.11719-0.082031-0.23047-0.14062-0.34375-0.17188-0.11719-0.039063-0.24219-0.0625-0.375-0.0625-0.23047 0-0.41406 0.074219-0.54688 0.21875-0.125 0.14844-0.1875 0.35156-0.1875 0.60938 0 0.26172 0.0625 0.46484 0.1875 0.60938 0.13281 0.14844 0.31641 0.21875 0.54688 0.21875 0.13281 0 0.25781-0.015625 0.375-0.046875 0.11328-0.039062 0.22656-0.10156 0.34375-0.1875z"/>
  </symbol>
  <symbol id="b" overflow="visible">
   <path d="m1.6875-1.375c-0.054688-0.019531-0.10547-0.035156-0.15625-0.046875-0.054688-0.007813-0.10547-0.015625-0.15625-0.015625-0.15625 0-0.27734 0.054688-0.35938 0.15625-0.085937 0.09375-0.125 0.23438-0.125 0.42188v0.85938h-0.60938v-1.875h0.60938v0.29688c0.070313-0.11328 0.16016-0.19531 0.26562-0.25 0.10156-0.0625 0.22266-0.09375 0.35938-0.09375h0.0625c0.019531 0 0.054687 0.007813 0.10938 0.015625z"/>
  </symbol>
  <symbol id="a" overflow="visible">
   <path d="m2.1719-0.9375v0.15625h-1.4062c0.007813 0.14844 0.054687 0.25781 0.14062 0.32812 0.09375 0.074219 0.21875 0.10938 0.375 0.10938 0.125 0 0.25-0.019531 0.375-0.0625 0.13281-0.039062 0.27344-0.097656 0.42188-0.17188v0.46875c-0.14844 0.054688-0.29297 0.089844-0.4375 0.10938-0.13672 0.03125-0.27734 0.046875-0.42188 0.046875-0.33594 0-0.60156-0.082031-0.79688-0.25-0.1875-0.17578-0.28125-0.42188-0.28125-0.73438 0-0.30078 0.09375-0.53906 0.28125-0.71875 0.1875-0.17578 0.44141-0.26562 0.76562-0.26562 0.30078 0 0.53906 0.089844 0.71875 0.26562 0.17578 0.17969 0.26562 0.41797 0.26562 0.71875zm-0.625-0.20312c0-0.11328-0.039063-0.20703-0.10938-0.28125-0.0625-0.070313-0.14844-0.10938-0.25-0.10938-0.11719 0-0.21094 0.039062-0.28125 0.10938-0.074219 0.0625-0.12109 0.15625-0.14062 0.28125z"/>
  </symbol>
  <symbol id="e" overflow="visible">
   <path d="m1.125-0.84375c-0.125 0-0.21875 0.023438-0.28125 0.0625-0.0625 0.042969-0.09375 0.10547-0.09375 0.1875 0 0.074219 0.023438 0.13672 0.078125 0.1875 0.050781 0.042969 0.125 0.0625 0.21875 0.0625 0.11328 0 0.20703-0.039062 0.28125-0.125 0.070313-0.082031 0.10938-0.1875 0.10938-0.3125v-0.0625zm0.92188-0.23438v1.0781h-0.60938v-0.28125c-0.074219 0.11719-0.16406 0.19922-0.26562 0.25-0.10547 0.050781-0.23047 0.078125-0.375 0.078125-0.1875 0-0.34375-0.054688-0.46875-0.17188-0.125-0.11328-0.1875-0.25781-0.1875-0.4375 0-0.21875 0.078125-0.37891 0.23438-0.48438 0.15625-0.10156 0.39453-0.15625 0.71875-0.15625h0.34375v-0.046875c0-0.09375-0.039062-0.16016-0.10938-0.20312-0.074219-0.050781-0.1875-0.078125-0.34375-0.078125-0.13672 0-0.26172 0.015625-0.375 0.046875-0.10547 0.023437-0.20312 0.058594-0.29688 0.10938v-0.45312c0.125-0.03125 0.25-0.050781 0.375-0.0625 0.13281-0.019531 0.26953-0.03125 0.40625-0.03125 0.33203 0 0.57031 0.070313 0.71875 0.20312 0.15625 0.125 0.23438 0.33984 0.23438 0.64062z"/>
  </symbol>
  <symbol id="d" overflow="visible">
   <path d="m0.9375-2.4062v0.53125h0.625v0.42188h-0.625v0.79688c0 0.09375 0.015625 0.15625 0.046875 0.1875 0.039063 0.023438 0.11328 0.03125 0.21875 0.03125h0.3125v0.4375h-0.51562c-0.24219 0-0.41406-0.046875-0.51562-0.14062-0.09375-0.10156-0.14062-0.27344-0.14062-0.51562v-0.79688h-0.29688v-0.42188h0.29688v-0.53125z"/>
  </symbol>
  <symbol id="l" overflow="visible">
   <path d="m1.5625-1.6094v-1h0.60938v2.6094h-0.60938v-0.26562c-0.085938 0.10547-0.17969 0.18359-0.28125 0.23438-0.09375 0.050781-0.20312 0.078125-0.32812 0.078125-0.24219 0-0.43359-0.085938-0.57812-0.26562-0.14844-0.1875-0.21875-0.42578-0.21875-0.71875 0-0.28906 0.070312-0.52344 0.21875-0.70312 0.14453-0.1875 0.33594-0.28125 0.57812-0.28125 0.125 0 0.23438 0.027344 0.32812 0.078125 0.10156 0.054688 0.19531 0.13281 0.28125 0.23438zm-0.39062 1.2188c0.125 0 0.21875-0.046875 0.28125-0.14062 0.070313-0.09375 0.10938-0.22656 0.10938-0.40625 0-0.17578-0.039062-0.3125-0.10938-0.40625-0.0625-0.09375-0.15625-0.14062-0.28125-0.14062s-0.22656 0.046875-0.29688 0.14062c-0.0625 0.09375-0.09375 0.23047-0.09375 0.40625 0 0.17969 0.03125 0.3125 0.09375 0.40625 0.070312 0.09375 0.17188 0.14062 0.29688 0.14062z"/>
  </symbol>
  <symbol id="k" overflow="visible">
   <path d="m1.2969-0.39062c0.125 0 0.21875-0.046875 0.28125-0.14062 0.070313-0.09375 0.10938-0.22656 0.10938-0.40625 0-0.17578-0.039062-0.3125-0.10938-0.40625-0.0625-0.09375-0.15625-0.14062-0.28125-0.14062-0.13672 0-0.24219 0.046875-0.3125 0.14062-0.0625 0.09375-0.09375 0.23047-0.09375 0.40625 0 0.17969 0.03125 0.3125 0.09375 0.40625 0.070313 0.09375 0.17578 0.14062 0.3125 0.14062zm-0.40625-1.2188c0.082031-0.10156 0.17188-0.17969 0.26562-0.23438 0.10156-0.050781 0.22266-0.078125 0.35938-0.078125 0.22656 0 0.41406 0.09375 0.5625 0.28125 0.15625 0.17969 0.23438 0.41406 0.23438 0.70312 0 0.29297-0.078125 0.53125-0.23438 0.71875-0.14844 0.17969-0.33594 0.26562-0.5625 0.26562-0.13672 0-0.25781-0.027344-0.35938-0.078125-0.09375-0.050781-0.18359-0.12891-0.26562-0.23438v0.26562h-0.60938v-2.6094h0.60938z"/>
  </symbol>
  <symbol id="j" overflow="visible">
   <path d="m0.046875-1.875h0.59375l0.5 1.2656 0.4375-1.2656h0.59375l-0.78125 2.0469c-0.085937 0.20703-0.17969 0.35156-0.28125 0.4375-0.10547 0.082031-0.24609 0.125-0.42188 0.125h-0.34375v-0.39062h0.1875c0.10156 0 0.17578-0.015625 0.21875-0.046875 0.050781-0.03125 0.085938-0.089844 0.10938-0.17188l0.015625-0.046875z"/>
  </symbol>
  <symbol id="f" overflow="visible">
   <path d="m2.1719-1.1406v1.1406h-0.59375v-0.875c0-0.16406-0.007813-0.27344-0.015625-0.32812-0.011719-0.0625-0.023438-0.10938-0.03125-0.14062-0.03125-0.039062-0.070312-0.070312-0.10938-0.09375-0.03125-0.019531-0.074219-0.03125-0.125-0.03125-0.125 0-0.22656 0.046875-0.29688 0.14062-0.074219 0.09375-0.10938 0.23047-0.10938 0.40625v0.92188h-0.60938v-1.875h0.60938v0.26562c0.09375-0.10156 0.1875-0.17969 0.28125-0.23438 0.10156-0.050781 0.21875-0.078125 0.34375-0.078125 0.21875 0 0.37891 0.070313 0.48438 0.20312 0.11328 0.125 0.17188 0.32031 0.17188 0.57812z"/>
  </symbol>
  <symbol id="i" overflow="visible">
   <path d="m0.28125-1.875h0.60938v1.875h-0.60938zm0-0.73438h0.60938v0.48438h-0.60938z"/>
  </symbol>
  <symbol id="c" overflow="visible">
   <path d="m1.1875-1.5c-0.13672 0-0.24219 0.054688-0.3125 0.15625-0.0625 0.09375-0.09375 0.23047-0.09375 0.40625 0 0.17969 0.03125 0.32031 0.09375 0.42188 0.070312 0.09375 0.17578 0.14062 0.3125 0.14062 0.125 0 0.22266-0.046875 0.29688-0.14062 0.070313-0.10156 0.10938-0.24219 0.10938-0.42188 0-0.17578-0.039062-0.3125-0.10938-0.40625-0.074219-0.10156-0.17188-0.15625-0.29688-0.15625zm0-0.42188c0.32031 0 0.57031 0.089844 0.75 0.26562 0.1875 0.16797 0.28125 0.40625 0.28125 0.71875s-0.09375 0.55859-0.28125 0.73438c-0.17969 0.16797-0.42969 0.25-0.75 0.25-0.32422 0-0.57812-0.082031-0.76562-0.25-0.1875-0.17578-0.28125-0.42188-0.28125-0.73438s0.09375-0.55078 0.28125-0.71875c0.1875-0.17578 0.44141-0.26562 0.76562-0.26562z"/>
  </symbol>
  <symbol id="h" overflow="visible">
   <path d="m1.5312-2.6094v0.39062h-0.34375c-0.085938 0-0.14062 0.015625-0.17188 0.046875s-0.046875 0.085937-0.046875 0.15625v0.14062h0.51562v0.42188h-0.51562v1.4531h-0.60938v-1.4531h-0.29688v-0.42188h0.29688v-0.14062c0-0.19531 0.054687-0.34375 0.17188-0.4375 0.11328-0.10156 0.28906-0.15625 0.53125-0.15625z"/>
  </symbol>
  <symbol id="s" overflow="visible">
   <path d="m1.1719-1.4844c-0.125 0-0.22656 0.046875-0.29688 0.14062-0.0625 0.09375-0.09375 0.23047-0.09375 0.40625 0 0.17969 0.03125 0.3125 0.09375 0.40625 0.070312 0.09375 0.17188 0.14062 0.29688 0.14062s0.21875-0.046875 0.28125-0.14062c0.070313-0.09375 0.10938-0.22656 0.10938-0.40625 0-0.17578-0.039062-0.3125-0.10938-0.40625-0.0625-0.09375-0.15625-0.14062-0.28125-0.14062zm0.39062 1.2188c-0.085938 0.10547-0.17969 0.18359-0.28125 0.23438-0.09375 0.050781-0.20312 0.078125-0.32812 0.078125-0.24219 0-0.43359-0.085938-0.57812-0.26562-0.14844-0.1875-0.21875-0.42578-0.21875-0.71875 0-0.28906 0.070312-0.52344 0.21875-0.70312 0.14453-0.1875 0.33594-0.28125 0.57812-0.28125 0.125 0 0.23438 0.027344 0.32812 0.078125 0.10156 0.054688 0.19531 0.13672 0.28125 0.25v-0.28125h0.60938v2.5938h-0.60938z"/>
  </symbol>
  <symbol id="g" overflow="visible">
   <path d="m2.1719-1.1406v1.1406h-0.59375v-0.875c0-0.16406-0.007813-0.27344-0.015625-0.32812-0.011719-0.0625-0.023438-0.10938-0.03125-0.14062-0.03125-0.039062-0.070312-0.070312-0.10938-0.09375-0.03125-0.019531-0.074219-0.03125-0.125-0.03125-0.125 0-0.22656 0.046875-0.29688 0.14062-0.074219 0.09375-0.10938 0.23047-0.10938 0.40625v0.92188h-0.60938v-2.6094h0.60938v1c0.09375-0.10156 0.1875-0.17969 0.28125-0.23438 0.10156-0.050781 0.21875-0.078125 0.34375-0.078125 0.21875 0 0.37891 0.070313 0.48438 0.20312 0.11328 0.125 0.17188 0.32031 0.17188 0.57812z"/>
  </symbol>
  <symbol id="r" overflow="visible">
   <path d="m2.0312-1.5625c0.070312-0.125 0.16016-0.21094 0.26562-0.26562 0.10156-0.0625 0.21875-0.09375 0.34375-0.09375 0.21875 0 0.38281 0.070313 0.5 0.20312 0.11328 0.125 0.17188 0.32031 0.17188 0.57812v1.1406h-0.60938v-0.98438-0.03125-0.078125c0-0.13281-0.023437-0.22656-0.0625-0.28125-0.03125-0.0625-0.09375-0.09375-0.1875-0.09375-0.10547 0-0.1875 0.046875-0.25 0.14062s-0.10156 0.23047-0.10938 0.40625v0.92188h-0.59375v-0.98438c0-0.20703-0.023438-0.33594-0.0625-0.39062-0.03125-0.0625-0.09375-0.09375-0.1875-0.09375-0.11719 0-0.20312 0.046875-0.26562 0.14062s-0.09375 0.23047-0.09375 0.40625v0.92188h-0.60938v-1.875h0.60938v0.26562c0.070313-0.10156 0.15625-0.17969 0.25-0.23438 0.09375-0.050781 0.19531-0.078125 0.3125-0.078125 0.13281 0 0.25 0.03125 0.34375 0.09375 0.10156 0.0625 0.17969 0.15234 0.23438 0.26562z"/>
  </symbol>
  <symbol id="q" overflow="visible">
   <path d="m0.3125-2.5h0.71875l0.92188 1.7188v-1.7188h0.60938v2.5h-0.71875l-0.92188-1.7188v1.7188h-0.60938z"/>
  </symbol>
  <symbol id="p" overflow="visible">
   <path d="m0.26562-0.73438v-1.1406h0.60938v0.1875 0.375 0.3125 0.32812c0.007812 0.0625 0.023438 0.10938 0.046875 0.14062 0.019531 0.042969 0.050781 0.074219 0.09375 0.09375 0.039063 0.023438 0.085937 0.03125 0.14062 0.03125 0.125 0 0.22266-0.046875 0.29688-0.14062 0.070313-0.09375 0.10938-0.22656 0.10938-0.40625v-0.92188h0.59375v1.875h-0.59375v-0.26562c-0.09375 0.10547-0.19531 0.18359-0.29688 0.23438-0.09375 0.050781-0.20312 0.078125-0.32812 0.078125-0.21875 0-0.38672-0.0625-0.5-0.1875-0.11719-0.13281-0.17188-0.33203-0.17188-0.59375z"/>
  </symbol>
  <symbol id="o" overflow="visible">
   <path d="m0.3125-2.5h1.0781c0.3125 0 0.55078 0.074219 0.71875 0.21875 0.17578 0.13672 0.26562 0.33594 0.26562 0.59375 0 0.26172-0.089844 0.46484-0.26562 0.60938-0.16797 0.13672-0.40625 0.20312-0.71875 0.20312h-0.42188v0.875h-0.65625zm0.65625 0.46875v0.6875h0.34375c0.125 0 0.22266-0.023438 0.29688-0.078125 0.070313-0.0625 0.10938-0.14844 0.10938-0.26562 0-0.11328-0.039062-0.19531-0.10938-0.25-0.074219-0.0625-0.17188-0.09375-0.29688-0.09375z"/>
  </symbol>
  <symbol id="n" overflow="visible">
   <path d="m0.28125-1.875h0.60938v1.8438c0 0.25-0.0625 0.4375-0.1875 0.5625-0.11719 0.13281-0.28906 0.20312-0.51562 0.20312h-0.29688v-0.39062h0.09375c0.11328 0 0.19141-0.027344 0.23438-0.078125 0.039062-0.054687 0.0625-0.15234 0.0625-0.29688zm0-0.73438h0.60938v0.48438h-0.60938z"/>
  </symbol>
  <symbol id="m" overflow="visible">
   <path d="m1.8125-1.8281v0.5c-0.085938-0.0625-0.16797-0.10156-0.25-0.125-0.085938-0.03125-0.16797-0.046875-0.25-0.046875-0.17969 0-0.3125 0.054688-0.40625 0.15625-0.085938 0.09375-0.125 0.23047-0.125 0.40625 0 0.17969 0.039062 0.32031 0.125 0.42188 0.09375 0.09375 0.22656 0.14062 0.40625 0.14062 0.09375 0 0.17969-0.015625 0.26562-0.046875 0.082031-0.03125 0.16016-0.070313 0.23438-0.125v0.48438c-0.09375 0.042969-0.19531 0.066406-0.29688 0.078125-0.09375 0.019531-0.1875 0.03125-0.28125 0.03125-0.34375 0-0.61719-0.082031-0.8125-0.25-0.1875-0.17578-0.28125-0.42188-0.28125-0.73438s0.09375-0.55078 0.28125-0.71875c0.19531-0.17578 0.46875-0.26562 0.8125-0.26562 0.09375 0 0.1875 0.011719 0.28125 0.03125 0.10156 0.011719 0.20312 0.03125 0.29688 0.0625z"/>
  </symbol>
 </defs>
 <g>
  <path d="m557.51 22.676c-15.805 1.375-25.422 17.863-18.551 32.293 15.117-1.375 24.734-17.863 18.551-32.293z" fill-rule="evenodd"/>
  <path d="m523.84 20.613c-13.742 7.5586-15.805 26.109-4.8086 36.418 13.742-7.5586 15.805-26.109 4.8086-36.418z" fill-rule="evenodd"/>
  <path d="m598.73 168.34c-15.805 1.375-25.422 17.863-19.238 32.293 15.805-1.375 25.422-17.863 19.238-32.293z" fill-rule="evenodd"/>
  <path d="m614.54 217.82c-14.43-12.367-37.105-7.5586-44.664 10.309 14.43 12.367 37.105 6.8711 44.664-10.309z" fill-rule="evenodd"/>
  <path d="m600.11 261.79c-5.4961-20.613-30.922-30.234-48.785-18.551 5.4961 21.301 30.234 30.922 48.785 18.551z" fill-rule="evenodd"/>
  <path d="m497.73 27.484c-19.238 10.992-21.988 37.105-6.1836 52.223 19.238-10.309 22.676-37.105 6.1836-52.223z" fill-rule="evenodd"/>
  <path d="m580.18 62.527c-13.742-13.055-35.73-8.9336-43.977 7.5586 13.055 13.055 35.73 8.9336 43.977-7.5586z" fill-rule="evenodd"/>
  <path d="m563.69 106.5c-5.4961-21.301-29.547-31.605-48.785-19.926 5.4961 21.301 29.547 31.605 48.785 19.926z" fill-rule="evenodd"/>
  <path d="m262.05 47.41c-10.309 10.309-6.8711 28.172 6.1836 35.043 10.309-10.992 6.8711-28.859-6.1836-35.043z" fill-rule="evenodd"/>
  <path d="m234.56 68.711c-6.1836 15.117 4.8086 32.293 21.301 32.98 5.4961-15.805-4.8086-32.293-21.301-32.98z" fill-rule="evenodd"/>
  <path d="m222.88 100.32c-7.5586 20.613 6.8711 43.289 28.859 43.977 7.5586-20.613-6.8711-42.602-28.859-43.977z" fill-rule="evenodd"/>
  <path d="m313.58 55.656c-21.988-1.375-39.164 19.238-33.668 40.539 21.988 1.375 39.164-19.238 33.668-40.539z" fill-rule="evenodd"/>
  <path d="m308.09 114.75c-13.055-9.6211-32.293-3.4375-37.793 11.68 13.742 10.309 32.98 4.1211 37.793-11.68z" fill-rule="evenodd"/>
  <path d="m563.01 171.09c-13.742 8.2461-16.492 27.484-4.8086 38.48 14.43-8.2461 16.492-27.484 4.8086-38.48z" fill-rule="evenodd"/>
  <path d="m499.11 124.37c-14.43 8.2461-17.18 28.172-4.8086 39.164 14.43-7.5586 16.492-27.484 4.8086-39.164z" fill-rule="evenodd"/>
  <path d="m525.9 184.84c-6.1836 16.492 6.1836 34.355 23.363 35.73 6.1836-17.18-5.4961-35.043-23.363-35.73z" fill-rule="evenodd"/>
  <path d="m528.65 142.23c-15.117-0.6875-27.484 13.055-23.363 28.172 15.117 0.6875 26.797-13.742 23.363-28.172z" fill-rule="evenodd"/>
  <path d="m565.75 276.91c-5.4961-21.301-30.234-30.922-48.785-18.551 5.4961 20.613 30.234 30.234 48.785 18.551z" fill-rule="evenodd"/>
  <path d="m453.07 146.36c-6.1836 16.492 5.4961 34.355 23.363 35.043 6.1836-16.492-6.1836-34.355-23.363-35.043z" fill-rule="evenodd"/>
  <path d="m434.52 176.59c-7.5586 20.613 7.5586 42.602 28.859 43.977 8.2461-20.613-6.8711-43.289-28.859-43.977z" fill-rule="evenodd"/>
  <path d="m415.28 219.19c0 21.988 21.988 37.105 42.602 30.234 0-21.988-21.988-37.105-42.602-30.234z" fill-rule="evenodd"/>
  <path d="m424.21 81.766c-21.988-1.375-39.164 19.238-33.668 40.539 21.988 1.375 39.164-19.238 33.668-40.539z" fill-rule="evenodd"/>
  <path d="m365.8 53.594c-15.117 15.805-10.309 41.914 9.6211 51.535 15.117-15.805 10.309-42.602-9.6211-51.535z" fill-rule="evenodd"/>
  <path d="m330.07 61.84c-5.4961 14.43 4.8086 29.547 19.926 30.234 4.8086-13.742-4.8086-29.547-19.926-30.234z" fill-rule="evenodd"/>
  <path d="m307.4 94.137c6.1836 13.742 24.734 17.18 35.73 6.8711-6.8711-13.742-24.734-17.18-35.73-6.8711z" fill-rule="evenodd"/>
  <path d="m356.87 112c-16.492-5.4961-32.98 6.8711-32.98 23.363 15.805 5.4961 32.293-6.1836 32.98-23.363z" fill-rule="evenodd"/>
  <path d="m385.73 134.68c-18.551-11.68-43.289-0.6875-48.098 20.613 18.551 10.992 43.289 0.6875 48.098-20.613z" fill-rule="evenodd"/>
  <path d="m524.53 180.02c-15.805-8.2461-35.043 1.375-37.793 19.238 15.805 7.5586 35.043-2.0625 37.793-19.238z" fill-rule="evenodd"/>
  <path d="m510.79 214.38c-13.055-6.8711-28.172 1.375-30.234 15.117 12.367 6.1836 27.484-1.375 30.234-15.117z" fill-rule="evenodd"/>
  <path d="m118.44 96.883c2.0625 15.117 17.863 23.363 31.605 17.18-2.0625-14.43-17.863-23.363-31.605-17.18z" fill-rule="evenodd"/>
  <path d="m76.527 207.51c13.055 7.5586 29.547-0.6875 32.293-15.117-13.055-6.8711-29.547 0.6875-32.293 15.117z" fill-rule="evenodd"/>
  <path d="m120.5 127.8c8.2461 14.43 28.172 16.492 39.164 4.1211-8.9336-14.43-28.172-15.805-39.164-4.1211z" fill-rule="evenodd"/>
  <path d="m110.88 223.31c16.492 1.375 29.547-13.055 26.109-28.859-15.805-2.0625-29.547 13.055-26.109 28.859z" fill-rule="evenodd"/>
  <path d="m137.68 149.11c8.2461 13.055 27.484 15.117 37.793 3.4375-8.2461-13.742-26.797-15.117-37.793-3.4375z" fill-rule="evenodd"/>
  <path d="m142.49 226.75c21.988 2.0625 39.852-17.863 35.043-39.164-21.988-2.75-39.852 17.18-35.043 39.164z" fill-rule="evenodd"/>
  <path d="m172.04 74.895c-15.117 7.5586-18.551 28.172-6.8711 39.852 15.117-7.5586 18.551-27.484 6.8711-39.852z" fill-rule="evenodd"/>
  <path d="m71.719 155.29c4.1211 21.988 28.859 32.98 47.41 22.676-4.1211-21.988-28.172-32.98-47.41-22.676z" fill-rule="evenodd"/>
  <path d="m191.28 97.57c-15.805 4.1211-23.363 23.363-14.43 37.105 16.492-4.1211 23.363-22.676 14.43-37.105z" fill-rule="evenodd"/>
  <path d="m119.13 145.67c-6.1836 15.117 4.8086 32.293 21.301 33.668 6.1836-15.805-4.8086-32.98-21.301-33.668z" fill-rule="evenodd"/>
  <path d="m131.5 74.207c-3.4375 14.43 8.2461 28.172 22.676 27.484 3.4375-14.43-8.2461-28.172-22.676-27.484z" fill-rule="evenodd"/>
  <path d="m218.76 54.969c-15.117 7.5586-18.551 27.484-6.8711 39.852 15.117-7.5586 18.551-27.484 6.8711-39.852z" fill-rule="evenodd"/>
  <path d="m185.09 66.648c-6.8711 13.055 1.375 28.859 16.492 31.605 6.1836-13.742-2.0625-29.547-16.492-31.605z" fill-rule="evenodd"/>
  <path d="m452.38 0c-19.238 10.992-22.676 37.105-6.1836 52.223 18.551-10.992 21.988-37.105 6.1836-52.223z" fill-rule="evenodd"/>
  <path d="m411.15 21.988c-5.4961 13.742 4.8086 29.547 19.926 30.234 5.4961-14.43-4.8086-29.547-19.926-30.234z" fill-rule="evenodd"/>
  <path d="m407.72 63.902c6.1836 13.742 24.734 17.18 35.73 6.8711-6.8711-13.742-24.734-17.18-35.73-6.8711z" fill-rule="evenodd"/>
  <path d="m479.18 35.043c-15.117-1.375-26.797 13.055-23.363 27.484 15.117 1.375 27.484-13.055 23.363-27.484z" fill-rule="evenodd"/>
  <path d="m481.24 98.945c6.1836 13.742 24.734 17.18 35.73 6.8711-6.8711-13.742-24.734-17.18-35.73-6.8711z" fill-rule="evenodd"/>
  <path d="m516.28 287.9c-4.1211-15.117-21.988-21.988-35.043-13.055 4.1211 14.43 21.988 21.301 35.043 13.055z" fill-rule="evenodd"/>
  <path d="m539.64 316.07c6.8711-13.055-1.375-30.234-16.492-32.98-6.8711 13.055 0.6875 30.234 16.492 32.98z" fill-rule="evenodd"/>
  <path d="m607.67 297.52c0.6875-17.863-16.492-31.605-33.668-26.797-0.6875 17.863 16.492 31.605 33.668 26.797z" fill-rule="evenodd"/>
  <path d="m576.75 327.07c8.9336-15.805-0.6875-35.73-18.551-38.48-8.2461 15.805 1.375 35.043 18.551 38.48z" fill-rule="evenodd"/>
  <path d="m628.28 250.8c-4.8086-13.055-21.988-17.18-32.98-8.9336 5.4961 13.742 21.988 17.863 32.98 8.9336z" fill-rule="evenodd"/>
  <path d="m356.87 215.75c-19.926-11.68-39.852-20.613-61.84-28.859-8.9336-4.1211-19.238-14.43-21.988-24.051-2.0625-5.4961-3.4375-13.055-4.1211-18.551-3.4375-15.805-2.75-30.234 0-46.035 0-2.0625 2.75-11.68-0.6875-10.992-2.75 0-4.8086 10.992-5.4961 13.742-4.1211 17.18-4.1211 30.234-2.0625 47.41 0 2.75 0.6875 19.238 0 21.301-1.375 4.1211-4.8086 2.75-8.2461 1.375-3.4375-0.6875-6.8711-2.0625-10.309-3.4375-4.8086-2.0625-16.492-5.4961-20.613-8.9336-5.4961-5.4961-8.2461-19.926-8.9336-27.484-0.6875-6.8711-1.375-11.68-0.6875-18.551 0-1.375 1.375-17.863-2.0625-15.805-2.0625 0.6875-2.75 13.055-2.75 15.117-0.6875 6.1836-1.375 9.6211-1.375 15.805 0 4.8086 0 19.926-2.75 23.363-3.4375 4.8086-10.309-0.6875-14.43-2.75-3.4375-2.75-6.8711-5.4961-10.309-8.2461-7.5586-7.5586-13.742-16.492-17.863-25.422-1.375-2.0625-4.1211-8.2461-6.1836-8.9336-2.75 0 0.6875 6.8711 1.375 7.5586 3.4375 8.2461 5.4961 11.68 9.6211 19.238 7.5586 10.992 14.43 18.551 24.734 26.797 4.1211 3.4375 10.309 5.4961 15.117 8.2461 1.375 0.6875 7.5586 4.1211 6.8711 6.1836-1.375 4.1211-28.859 2.75-32.98 2.75-21.301 0-42.602 2.75-61.84 10.309-1.375 0.6875-6.1836 2.0625-4.1211 4.8086 1.375 1.375 13.055-2.75 15.805-3.4375 16.492-4.1211 32.98-5.4961 50.848-5.4961 8.2461 0.6875 16.492 0.6875 24.734 1.375h10.992c0 3.4375 0 6.8711-0.6875 10.309-13.742-1.375-27.484 8.9336-31.605 24.734-5.4961 17.863 6.8711 46.723 23.363 55.656 2.0625 0.6875 3.4375 1.375 5.4961 1.375-0.6875 2.75-1.375 5.4961-1.375 8.2461-14.43 4.1211-25.422 27.484-12.367 43.977 12.367 16.492 6.8711 43.977 24.051 35.73 17.18-8.9336 28.859-37.793 24.051-55.656-4.8086-15.805-18.551-26.797-32.293-24.734 0-2.75 0-5.4961 0.6875-7.5586 7.5586-3.4375 6.1836-23.363 16.492-37.105 12.367-16.492 1.375-39.852-13.055-43.977 0.6875-3.4375 0.6875-7.5586 0.6875-10.992l8.2461 0.6875c15.805 0.6875 21.988 2.0625 30.922 5.4961 3.4375 6.1836 8.9336 16.492 8.2461 26.797-13.742-1.375-27.484 8.9336-32.293 25.422-4.8086 17.18 6.8711 46.035 24.051 54.969 17.18 8.9336 11.68-19.238 24.051-35.73 13.055-15.805 2.0625-39.164-12.367-43.977-0.6875-12.367-4.8086-19.926-6.8711-25.422 2.75 1.375 6.1836 3.4375 10.309 4.8086 17.863 8.9336 35.043 17.863 52.223 27.484 7.5586 4.8086 15.117 9.6211 22.676 14.43-33.668 115.44-62.527 193.77-63.215 320.88h30.922c0-1.375-33.668-72.148 4.8086-178.65-33.668 127.12 0.6875 143.61 10.309 178.65h44.664c5.4961-30.234 0-63.215-9.6211-97.57 16.492 30.922 26.109 63.902 24.734 97.57h32.293c2.0625-84.516-81.078-141.55-61.84-230.18 20.613-28.859 62.527-41.227 94.82-52.223 5.4961-2.0625 10.309-3.4375 15.117-5.4961 1.375-0.6875 2.0625-1.375 2.75-1.375-2.0625 5.4961-5.4961 13.055-6.1836 24.734h-0.6875c-14.43 4.8086-24.734 28.172-12.367 44.664 13.055 16.492 7.5586 43.977 24.734 35.043 16.492-8.9336 28.859-37.793 23.363-54.969-4.8086-16.492-18.551-26.797-31.605-25.422-1.375-9.6211 4.1211-19.238 6.8711-25.422 3.4375-1.375 6.8711-2.0625 10.309-4.1211 15.805-7.5586 29.547-16.492 46.035-22.676 3.4375-1.375 8.9336-3.4375 10.992-5.4961 4.1211-3.4375 7.5586-6.1836 10.992-9.6211 7.5586-6.1836 7.5586-7.5586 12.367-15.117 1.375-2.75 2.75-4.1211 4.1211-6.1836 2.0625-2.0625-2.0625-0.6875-2.75 0-4.1211 3.4375-6.8711 8.2461-11.68 12.367-8.9336 6.1836-15.805 8.9336-26.109 12.367-0.6875 0.6875-1.375 0.6875-2.0625 0.6875-14.43 6.1836-27.484 14.43-41.227 21.301-4.1211 2.0625-6.1836 0.6875-8.2461-3.4375-5.4961-10.992-4.8086-30.234-0.6875-41.914 1.375-5.4961 4.1211-10.992 6.1836-17.18 1.375-3.4375 5.4961-16.492 4.1211-19.926-0.6875-1.375-2.75-2.75-2.75-0.6875 0 3.4375-4.8086 15.805-6.1836 19.238-4.1211 10.992-8.2461 17.18-10.992 28.172-2.0625 8.9336-1.375 15.805-2.75 24.051-0.6875 8.2461-2.75 19.926-10.992 21.988l-1.375 0.6875c-4.8086 1.375-11.68 2.0625-17.18 3.4375-23.363 4.1211-45.352 7.5586-67.336 18.551 7.5586-74.895 32.98-110.62 79.707-166.97 7.5586-8.9336 15.117-16.492 25.422-20.613 6.8711-3.4375 13.742-6.1836 21.301-8.9336 8.9336-4.1211 26.109-10.309 30.234-19.926 1.375-3.4375 2.0625-6.1836 4.1211-8.2461 0.6875-0.6875 2.0625-2.75 0-2.75-4.1211 0-6.1836 8.9336-9.6211 11.68-6.8711 6.8711-20.613 10.992-30.234 14.43-8.2461 2.75-17.18 4.8086-25.422 6.8711-4.1211 0.6875-8.9336 2.0625-9.6211-3.4375-1.375-6.1836-0.6875-13.055-2.0625-19.238-1.375-3.4375-3.4375-8.9336-5.4961-11.68-0.6875 1.375 0.6875 7.5586 1.375 9.6211 0.6875 8.9336-1.375 21.301-4.8086 29.547-4.8086 11.68-2.75 10.992-11.68 21.988-2.75 3.4375-19.238 24.051-21.988 25.422-3.4375 2.0625-7.5586-2.75-9.6211-5.4961-14.43-15.805-20.613-19.926-39.164-29.547-5.4961-2.75-8.2461-4.8086-13.055-8.2461-1.375-0.6875-2.75-2.0625-4.8086-2.75 0 1.375 0.6875 2.0625 2.0625 2.75 7.5586 6.8711 15.117 10.309 23.363 15.805 10.309 6.1836 20.613 15.805 25.422 27.484 4.1211 10.309 1.375 19.238-5.4961 27.484-7.5586 8.9336-14.43 17.863-21.301 27.484-3.4375 4.1211-9.6211 11.68-12.367 17.18zm114.06 82.453c-15.805 0.6875-21.988 18.551-11.68 28.172 0 0-1.375-14.43 11.68-28.172zm-205.45-77.645c15.805 0.6875 22.676 18.551 11.68 28.172 0 0 2.0625-14.43-11.68-28.172zm-51.535-23.363c15.805 1.375 22.676 19.238 12.367 28.859 0 0 1.375-14.43-12.367-28.859zm0.6875 89.324c-15.805 1.375-22.676 18.551-11.68 28.172 0 0-2.0625-13.742 11.68-28.172z" fill-rule="evenodd"/>
  <use x="71.71875" y="570.308594" xlink:href="#t"/>
  <use x="74.238281" y="570.308594" xlink:href="#b"/>
  <use x="75.933594" y="570.308594" xlink:href="#a"/>
  <use x="78.261719" y="570.308594" xlink:href="#e"/>
  <use x="80.582031" y="570.308594" xlink:href="#d"/>
  <use x="82.222656" y="570.308594" xlink:href="#a"/>
  <use x="84.554688" y="570.308594" xlink:href="#l"/>
  <use x="88.210938" y="570.308594" xlink:href="#k"/>
  <use x="90.667969" y="570.308594" xlink:href="#j"/>
  <use x="94.105469" y="570.308594" xlink:href="#e"/>
  <use x="96.421875" y="570.308594" xlink:href="#f"/>
  <use x="98.867188" y="570.308594" xlink:href="#i"/>
  <use x="101.242188" y="570.308594" xlink:href="#b"/>
  <use x="102.9375" y="570.308594" xlink:href="#c"/>
  <use x="105.296875" y="570.308594" xlink:href="#h"/>
  <use x="106.792969" y="570.308594" xlink:href="#i"/>
  <use x="107.96875" y="570.308594" xlink:href="#s"/>
  <use x="110.429688" y="570.308594" xlink:href="#e"/>
  <use x="112.746094" y="570.308594" xlink:href="#g"/>
  <use x="71.71875" y="573.742188" xlink:href="#h"/>
  <use x="73.210938" y="573.742188" xlink:href="#b"/>
  <use x="74.90625" y="573.742188" xlink:href="#c"/>
  <use x="77.265625" y="573.742188" xlink:href="#r"/>
  <use x="82.042969" y="573.742188" xlink:href="#d"/>
  <use x="83.683594" y="573.742188" xlink:href="#g"/>
  <use x="86.132813" y="573.742188" xlink:href="#a"/>
  <use x="89.65625" y="573.742188" xlink:href="#q"/>
  <use x="92.53125" y="573.742188" xlink:href="#c"/>
  <use x="94.894531" y="573.742188" xlink:href="#p"/>
  <use x="97.339844" y="573.742188" xlink:href="#f"/>
  <use x="100.980469" y="573.742188" xlink:href="#o"/>
  <use x="103.5" y="573.742188" xlink:href="#b"/>
  <use x="105.191406" y="573.742188" xlink:href="#c"/>
  <use x="107.554688" y="573.742188" xlink:href="#n"/>
  <use x="108.730469" y="573.742188" xlink:href="#a"/>
  <use x="111.0625" y="573.742188" xlink:href="#m"/>
  <use x="113.097656" y="573.742188" xlink:href="#d"/>
 </g>
</svg>
